<svg width="19" height="19" viewBox="0 0 19 19" fill="none" xmlns="http://www.w3.org/2000/svg">
<path d="M16.6702 18.0013L10.5402 11.8725C7.76748 13.7016 4.06038 13.1358 1.95957 10.5629C-0.141243 7.98989 0.0458004 4.24452 2.39251 1.89367C4.74295 -0.453943 8.48875 -0.641797 11.0623 1.45887C13.6358 3.55954 14.202 7.26707 12.3726 10.0401L18.5001 16.1714L16.6702 18.0013ZM6.97044 2.58806C5.11772 2.58689 3.52218 3.89461 3.15955 5.71148C2.79693 7.52836 3.76822 9.34838 5.47943 10.0585C7.19064 10.7686 9.16519 10.1711 10.1955 8.63133C11.2259 7.09155 11.0251 5.03837 9.71591 3.72741C8.98967 2.99615 8.00104 2.58588 6.97044 2.58806Z" fill="white"/>
</svg>
